<?xml version="1.0" encoding="UTF-8" standalone="no"?>
<!-- Created with Inkscape (http://www.inkscape.org/) -->

<svg
   xmlns:dc="http://purl.org/dc/elements/1.1/"
   xmlns:cc="http://creativecommons.org/ns#"
   xmlns:rdf="http://www.w3.org/1999/02/22-rdf-syntax-ns#"
   xmlns:svg="http://www.w3.org/2000/svg"
   xmlns="http://www.w3.org/2000/svg"
   version="1.1"
   width="1000"
   height="279.26001"
   id="svg5583">
  <defs
     id="defs5585" />
  <metadata
     id="metadata5588">
    <rdf:RDF>
      <cc:Work
         rdf:about="">
        <dc:format>image/svg+xml</dc:format>
        <dc:type
           rdf:resource="http://purl.org/dc/dcmitype/StillImage" />
        <dc:title></dc:title>
      </cc:Work>
    </rdf:RDF>
  </metadata>
  <g
     transform="translate(362.61049,-157.1147)"
     id="layer1">
    <g
       transform="matrix(0.81649419,0,0,0.81649419,65.109993,-51.573637)"
       id="g6398">
      <path
         d="m 507.78125,316.9375 c -63.28197,0 -114.5625,45.14824 -114.5625,100.78125 0,25.67202 11.00876,49.13207 29.09375,67.03125 l 16.59375,17.0625 c 21.07335,21.05786 51.82138,34.3125 86.1875,34.3125 63.27421,0 114.5625,-45.11727 114.5625,-100.78125 0,-26.12879 -11.263,-49.88206 -29.8125,-67.78125 l -12.75,-13 c -21.0811,-22.97784 -53.18119,-37.625 -89.3125,-37.625 z m -611.40625,3.84375 0,193.59375 17.28125,17.6875 35.4375,0 0,-93.8125 35.4375,76.125 17.15625,17.6875 27.71875,0 35.4375,-75 0,57.3125 17.125,17.6875 85.6875,0 0,-193.625 -17.21875,-17.65625 -81.4375,0 -38.71875,74.75 -26.53125,-57.0625 -17.25,-17.6875 -90.125,0 z m -312.125,0.1875 0,147.53125 c 0,16.84629 -9.87438,26.15625 -29.5,26.15625 -5.96898,0 -11.56747,-2.01052 -17.25,-4.875 l 0,21 c 5.17156,2.25288 17.25,17.65625 17.25,17.65625 9.58442,4.12641 20.34787,7.6875 38.78125,7.6875 42.1312,0 94,-21.25747 94,-55.46875 l 0,-142.0625 -17.25,-17.625 -86.03125,0 z m 114.96875,0 0,130 c 0,19.32368 4.97711,34.64071 15.3125,45.78125 l 1.75,1.84375 13.78125,13.8125 c 13.18439,15.77791 36.10444,23.96875 69.8125,23.96875 63.70004,0 82.625,-22.7916 82.625,-67.59375 l 0,-130.1875 -17.21875,-17.625 -34.96875,0 0,144.84375 c 0,14.06696 -4.85941,31.9375 -22.84375,31.9375 -1.26966,0 -2.52679,-0.11206 -3.75,-0.40625 -1.21548,-4.44383 -1.71875,-9.299 -1.71875,-13.8125 l 0,-144.9375 -17.25,-17.625 -85.53125,0 z m 482.09375,0 0,193.71875 17.1875,17.65625 95.75,0 c 70.14126,0 100.08714,-21.58212 100.21875,-57.125 0.0929,-14.6089 -1.45531,-28.32352 -11.96875,-38.09375 l -16.78125,-16.84375 0,-0.21875 c 16.83855,-6.51865 21.8125,-18.91337 21.8125,-34.25 0,-11.42699 -3.59115,-20.28034 -10.15625,-27.03125 L 360.71875,341.6875 c -15.24372,-16.32758 -46.89326,-20.71875 -84,-20.71875 l -95.40625,0 z m 343.78125,32.75 1.8125,0 c 5.15608,14.61664 6.78125,37.128 6.78125,64 0,47.566 -5.26645,81.5625 -25.90625,81.5625 -0.65032,0 -1.24017,-0.0398 -1.875,-0.125 -5.04769,-14.53147 -6.65625,-36.98724 -6.65625,-63.84375 0,-47.61245 5.0646,-81.59375 25.84375,-81.59375 z M 291,356.625 c 5.41931,0 10.17807,0.73892 14.28125,2.09375 0.91354,2.92642 1.21875,6.17156 1.21875,9.5625 0,9.29023 -5.22734,18.34912 -13.875,23.21875 -2.63998,1.5716 -5.36144,2.60827 -8.15625,3.34375 l 0,-37.625 c 2.50836,0 4.05386,-0.59375 6.53125,-0.59375 z m -1.3125,75.625 c 5.10128,0.11141 9.86408,1.21429 14.875,3.9375 3.089,6.25542 4.75,13.28136 4.75,21 0,11.85279 -4.47056,22.3316 -12.375,29.5625 -4.05674,3.72383 -8.11782,6.15405 -12.46875,7.625 l 0,-61.9375 c 1.79611,-0.16258 3.51832,-0.22464 5.21875,-0.1875 z"
         id="path4717" />
      <path
         d="m 507.8125,316.90625 c -63.28197,0 -114.59375,45.17948 -114.59375,100.8125 0,55.65624 51.31178,100.6875 114.59375,100.6875 63.32847,0 114.625,-45.039 114.625,-100.6875 0,-55.63302 -51.29653,-100.8125 -114.625,-100.8125 z m -611.4375,3.875 0,193.59375 35.53125,0 0,-113.21875 52.625,113.21875 27.625,0 52.6875,-111.53125 0,111.53125 85.59375,0 0,-193.59375 -81.4375,0 -43.5,83.96875 -39,-83.96875 -90.125,0 z m -312.125,0.1875 0,147.53125 c 0,16.84629 -9.89789,26.15625 -29.53125,26.15625 -5.9535,0 -11.58296,-2.01826 -17.25,-4.875 l 0,21 c 9.66958,4.10319 20.39433,7.625 38.78125,7.625 42.23959,0 94.03125,-21.18722 94.03125,-55.40625 l 0,-142.03125 -86.03125,0 z m 114.96875,0 0,130 c 0,44.54667 26.47232,67.84375 83.375,67.84375 63.75423,0 82.6875,-22.81709 82.6875,-67.84375 l 0,-130 -34.96875,0 0,144.84375 c 0.008,14.06696 -4.85166,31.96875 -22.84375,31.96875 -17.7366,0 -22.71875,-17.83098 -22.71875,-31.84375 l 0,-144.96875 -85.53125,0 z m 482.0625,0 0,193.75 95.78125,0 c 70.08707,0 100.0863,-21.45853 100.125,-57.15625 0.18581,-24.08493 -4.50571,-45.80719 -45.375,-51.21875 30.24745,-4.12641 38.53125,-18.63099 38.53125,-38.125 0,-38.26802 -41.37518,-47.25 -93.625,-47.25 l -95.4375,0 z m 326.5,15 c 20.63206,0 25.90625,34.02143 25.90625,81.75 0,47.55826 -5.27419,81.5625 -25.90625,81.5625 -20.70948,0 -25.83575,-33.9965 -25.84375,-81.5625 0,-47.72857 5.12653,-81.75 25.84375,-81.75 z M 273.75,339 c 21.40625,0 32.71875,11.23498 32.71875,29.28125 0,9.29024 -5.2196,18.34137 -13.875,23.21875 -7.90444,4.65285 -16.73537,4.97158 -25.40625,5.28125 l 0,-57.21875 c 2.52384,0 4.09285,-0.5625 6.5625,-0.5625 z m -3.09375,75.53125 c 7.907,-0.15803 14.96173,1.98699 22.96875,8.375 9.94055,7.81154 15.71875,20.05945 15.71875,34.28125 0,11.83731 -4.50181,22.32386 -12.40625,29.5625 -9.12682,8.39203 -18.73825,10.17007 -29.71875,9 l 0,-81 c 1.16999,-0.11032 2.30793,-0.19617 3.4375,-0.21875 z"
         id="path4727"
         style="fill:#ffcc00;stroke:#ffcc00;stroke-width:0.1;stroke-miterlimit:4;stroke-dasharray:none" />
    </g>
  </g>
</svg>
